<svg width="100%" height="100%" viewBox="0 0 32 32" version="1.1" xmlns="http://www.w3.org/2000/svg" xmlns:xlink="http://www.w3.org/1999/xlink" xml:space="preserve" xmlns:serif="http://www.serif.com/" style="fill-rule:evenodd;clip-rule:evenodd;stroke-linejoin:round;stroke-miterlimit:2;"><g transform="matrix(0.60194,0,0,0.60194,-754.184,-20.006)"><g transform="matrix(37.132,-1.29668,1.29668,37.132,1270.95,81.7683)"><path d="M0.179,-0.48C0.176,-0.477 0.171,-0.474 0.171,-0.469L0.168,-0.463L0.156,-0.44L0.153,-0.434C0.151,-0.433 0.151,-0.431 0.151,-0.43C0.151,-0.429 0.15,-0.428 0.151,-0.427C0.152,-0.425 0.152,-0.423 0.152,-0.422C0.152,-0.42 0.152,-0.419 0.15,-0.418L0.146,-0.41L0.14,-0.396C0.137,-0.389 0.133,-0.379 0.129,-0.372L0.128,-0.371C0.128,-0.367 0.128,-0.364 0.126,-0.36C0.124,-0.356 0.121,-0.353 0.12,-0.349L0.116,-0.339C0.115,-0.336 0.113,-0.335 0.111,-0.331C0.109,-0.326 0.107,-0.32 0.106,-0.314C0.104,-0.309 0.103,-0.303 0.099,-0.301C0.098,-0.3 0.098,-0.298 0.098,-0.298L0.098,-0.296C0.097,-0.294 0.097,-0.292 0.096,-0.291C0.094,-0.283 0.09,-0.277 0.088,-0.271C0.084,-0.263 0.082,-0.253 0.077,-0.245C0.076,-0.245 0.076,-0.244 0.075,-0.242C0.074,-0.232 0.071,-0.224 0.066,-0.214C0.062,-0.208 0.06,-0.201 0.059,-0.193L0.054,-0.182L0.041,-0.145C0.039,-0.142 0.038,-0.138 0.038,-0.136C0.037,-0.132 0.036,-0.127 0.034,-0.123C0.031,-0.118 0.03,-0.116 0.028,-0.11L0.026,-0.104C0.026,-0.098 0.024,-0.091 0.022,-0.084C0.021,-0.081 0.02,-0.077 0.017,-0.074C0.016,-0.069 0.015,-0.063 0.015,-0.058L0.008,-0.043C0.007,-0.038 0.007,-0.031 0.004,-0.026L0.002,-0.018L0.002,-0.01L0,0.011L0,0.025C0,0.028 0,0.029 0.001,0.033C0.003,0.036 0.002,0.039 0.002,0.044C0.001,0.05 0.002,0.056 0.005,0.063C0.006,0.064 0.006,0.065 0.006,0.066L0.005,0.069C0.005,0.07 0.005,0.071 0.007,0.073C0.013,0.081 0.02,0.088 0.023,0.096C0.024,0.097 0.025,0.098 0.027,0.098C0.03,0.099 0.032,0.1 0.036,0.1C0.037,0.1 0.038,0.099 0.04,0.099C0.041,0.099 0.043,0.1 0.046,0.1C0.048,0.101 0.049,0.102 0.048,0.105C0.049,0.108 0.049,0.11 0.052,0.11L0.065,0.11C0.067,0.109 0.068,0.109 0.07,0.109C0.072,0.109 0.073,0.109 0.075,0.11C0.081,0.11 0.087,0.107 0.093,0.105C0.098,0.103 0.1,0.1 0.105,0.099C0.107,0.097 0.11,0.095 0.11,0.093C0.111,0.091 0.111,0.089 0.112,0.089C0.119,0.084 0.123,0.077 0.129,0.07C0.133,0.068 0.136,0.066 0.138,0.064C0.141,0.059 0.145,0.053 0.151,0.05C0.158,0.045 0.163,0.04 0.168,0.034C0.177,0.021 0.186,0.011 0.194,0.001C0.2,-0.005 0.205,-0.012 0.211,-0.017L0.217,-0.025C0.219,-0.028 0.222,-0.031 0.224,-0.032C0.227,-0.037 0.231,-0.042 0.233,-0.047C0.234,-0.053 0.238,-0.057 0.243,-0.063C0.246,-0.066 0.248,-0.07 0.252,-0.074C0.256,-0.077 0.257,-0.081 0.261,-0.084C0.265,-0.087 0.265,-0.091 0.265,-0.093C0.267,-0.097 0.268,-0.099 0.271,-0.099C0.274,-0.102 0.277,-0.106 0.278,-0.11C0.28,-0.116 0.282,-0.119 0.287,-0.123C0.29,-0.124 0.292,-0.126 0.292,-0.127C0.296,-0.138 0.303,-0.144 0.308,-0.154C0.308,-0.156 0.31,-0.157 0.311,-0.159C0.314,-0.161 0.317,-0.166 0.32,-0.17C0.322,-0.177 0.326,-0.184 0.33,-0.19C0.335,-0.195 0.336,-0.203 0.34,-0.209C0.345,-0.215 0.351,-0.22 0.352,-0.228L0.356,-0.234C0.358,-0.236 0.36,-0.237 0.362,-0.24C0.367,-0.252 0.375,-0.263 0.379,-0.277C0.379,-0.278 0.38,-0.28 0.382,-0.281L0.385,-0.288C0.39,-0.297 0.395,-0.303 0.399,-0.312L0.402,-0.318C0.404,-0.318 0.406,-0.318 0.407,-0.317C0.408,-0.315 0.407,-0.312 0.407,-0.311L0.407,-0.31L0.404,-0.289L0.403,-0.28C0.402,-0.277 0.401,-0.274 0.401,-0.271L0.4,-0.262L0.396,-0.244L0.396,-0.243L0.391,-0.179C0.391,-0.175 0.391,-0.171 0.392,-0.167C0.393,-0.161 0.393,-0.155 0.392,-0.149C0.393,-0.144 0.394,-0.14 0.394,-0.136C0.394,-0.131 0.397,-0.124 0.397,-0.117L0.397,-0.113C0.397,-0.112 0.396,-0.11 0.396,-0.11L0.396,-0.088C0.398,-0.081 0.399,-0.073 0.4,-0.066L0.41,-0.037C0.414,-0.032 0.415,-0.027 0.418,-0.024C0.419,-0.021 0.419,-0.017 0.421,-0.015L0.427,-0.008C0.434,0.003 0.441,0.013 0.451,0.022L0.465,0.035C0.474,0.04 0.482,0.044 0.491,0.047C0.508,0.053 0.516,0.055 0.533,0.055C0.538,0.055 0.54,0.054 0.546,0.054C0.556,0.054 0.565,0.053 0.574,0.05C0.582,0.05 0.589,0.047 0.596,0.044L0.616,0.03C0.62,0.026 0.627,0.022 0.629,0.013C0.63,0.013 0.63,0.012 0.631,0.011C0.637,0.008 0.638,0.002 0.642,-0.003L0.651,-0.014C0.656,-0.02 0.661,-0.024 0.665,-0.028L0.684,-0.057C0.689,-0.066 0.697,-0.077 0.702,-0.088C0.711,-0.105 0.723,-0.123 0.731,-0.142L0.746,-0.173C0.752,-0.186 0.76,-0.2 0.765,-0.214C0.77,-0.225 0.774,-0.235 0.78,-0.246C0.785,-0.257 0.791,-0.267 0.794,-0.278C0.794,-0.283 0.797,-0.288 0.799,-0.293C0.803,-0.296 0.804,-0.3 0.804,-0.303C0.806,-0.311 0.808,-0.319 0.812,-0.325C0.814,-0.332 0.819,-0.337 0.82,-0.344C0.819,-0.345 0.819,-0.346 0.819,-0.347C0.819,-0.348 0.819,-0.349 0.82,-0.351C0.825,-0.354 0.826,-0.361 0.829,-0.366L0.838,-0.389C0.841,-0.395 0.842,-0.404 0.846,-0.411C0.846,-0.411 0.847,-0.413 0.847,-0.414C0.848,-0.42 0.85,-0.424 0.852,-0.43C0.855,-0.439 0.858,-0.448 0.859,-0.458L0.859,-0.463C0.859,-0.466 0.861,-0.471 0.864,-0.474L0.869,-0.489L0.873,-0.507L0.875,-0.515C0.876,-0.525 0.88,-0.535 0.882,-0.546C0.882,-0.551 0.884,-0.557 0.885,-0.564C0.884,-0.567 0.884,-0.57 0.885,-0.573C0.885,-0.578 0.887,-0.584 0.888,-0.589L0.889,-0.598C0.89,-0.606 0.891,-0.611 0.89,-0.618L0.891,-0.624C0.892,-0.636 0.891,-0.646 0.892,-0.658C0.889,-0.66 0.889,-0.662 0.888,-0.663L0.882,-0.674C0.88,-0.681 0.874,-0.685 0.87,-0.691C0.869,-0.692 0.867,-0.692 0.866,-0.692C0.862,-0.694 0.861,-0.696 0.857,-0.7C0.853,-0.705 0.846,-0.71 0.839,-0.714C0.836,-0.714 0.834,-0.717 0.832,-0.719L0.824,-0.719C0.823,-0.717 0.821,-0.716 0.819,-0.716C0.818,-0.716 0.816,-0.717 0.815,-0.717L0.81,-0.717L0.808,-0.713C0.808,-0.712 0.808,-0.711 0.809,-0.71L0.812,-0.708C0.813,-0.707 0.813,-0.707 0.813,-0.706C0.813,-0.705 0.811,-0.704 0.81,-0.703C0.809,-0.702 0.808,-0.702 0.808,-0.701C0.808,-0.7 0.809,-0.699 0.811,-0.697C0.812,-0.697 0.813,-0.697 0.814,-0.696C0.819,-0.695 0.821,-0.691 0.822,-0.685L0.822,-0.684C0.822,-0.683 0.823,-0.679 0.825,-0.678C0.828,-0.677 0.828,-0.675 0.83,-0.673C0.833,-0.669 0.833,-0.666 0.835,-0.663C0.837,-0.66 0.837,-0.655 0.838,-0.651C0.838,-0.646 0.84,-0.641 0.839,-0.637C0.839,-0.635 0.839,-0.634 0.838,-0.632C0.836,-0.628 0.834,-0.624 0.834,-0.619C0.833,-0.617 0.834,-0.616 0.834,-0.614C0.834,-0.611 0.832,-0.608 0.831,-0.606C0.831,-0.604 0.83,-0.603 0.83,-0.601C0.829,-0.598 0.83,-0.595 0.832,-0.592C0.832,-0.591 0.833,-0.589 0.833,-0.587C0.833,-0.583 0.832,-0.58 0.828,-0.58C0.825,-0.577 0.824,-0.574 0.824,-0.571C0.823,-0.565 0.821,-0.558 0.818,-0.553L0.815,-0.541L0.815,-0.538C0.815,-0.534 0.813,-0.532 0.811,-0.529C0.811,-0.525 0.81,-0.522 0.812,-0.519L0.812,-0.517C0.812,-0.516 0.812,-0.514 0.81,-0.513L0.807,-0.508C0.803,-0.499 0.797,-0.488 0.795,-0.476L0.782,-0.436L0.774,-0.421C0.773,-0.42 0.772,-0.418 0.772,-0.417C0.772,-0.416 0.772,-0.415 0.773,-0.414L0.773,-0.412C0.773,-0.411 0.773,-0.411 0.772,-0.411C0.77,-0.409 0.767,-0.407 0.767,-0.404C0.767,-0.4 0.765,-0.397 0.765,-0.394C0.763,-0.388 0.757,-0.379 0.754,-0.371L0.735,-0.325C0.729,-0.308 0.72,-0.289 0.713,-0.272C0.708,-0.258 0.698,-0.246 0.694,-0.231L0.694,-0.229C0.688,-0.227 0.688,-0.22 0.686,-0.215L0.676,-0.2C0.671,-0.189 0.665,-0.177 0.659,-0.167L0.655,-0.16C0.655,-0.154 0.652,-0.149 0.648,-0.145C0.644,-0.139 0.641,-0.134 0.639,-0.127L0.635,-0.123C0.631,-0.117 0.627,-0.111 0.624,-0.105C0.621,-0.099 0.616,-0.094 0.614,-0.09C0.611,-0.084 0.609,-0.079 0.602,-0.075C0.597,-0.072 0.594,-0.068 0.592,-0.063C0.591,-0.059 0.585,-0.054 0.582,-0.048L0.576,-0.044C0.57,-0.041 0.565,-0.036 0.561,-0.03C0.555,-0.026 0.552,-0.022 0.546,-0.017C0.539,-0.012 0.53,-0.008 0.52,-0.008L0.511,-0.008C0.508,-0.008 0.506,-0.011 0.503,-0.014C0.502,-0.016 0.5,-0.017 0.5,-0.02C0.496,-0.025 0.492,-0.029 0.489,-0.036C0.482,-0.045 0.479,-0.055 0.476,-0.067L0.472,-0.091C0.47,-0.101 0.469,-0.114 0.47,-0.125L0.47,-0.132C0.468,-0.138 0.468,-0.144 0.468,-0.151C0.468,-0.16 0.469,-0.17 0.468,-0.179C0.468,-0.184 0.468,-0.189 0.469,-0.192L0.471,-0.202L0.471,-0.21C0.47,-0.213 0.469,-0.215 0.469,-0.218C0.47,-0.22 0.471,-0.222 0.471,-0.224C0.472,-0.226 0.474,-0.229 0.474,-0.232C0.474,-0.234 0.473,-0.236 0.474,-0.238C0.474,-0.243 0.474,-0.247 0.476,-0.251C0.477,-0.257 0.477,-0.262 0.479,-0.268C0.479,-0.27 0.479,-0.273 0.48,-0.275C0.484,-0.291 0.486,-0.305 0.492,-0.32L0.492,-0.323L0.496,-0.336C0.496,-0.342 0.498,-0.346 0.499,-0.353C0.5,-0.359 0.504,-0.364 0.505,-0.37L0.506,-0.372L0.519,-0.414C0.522,-0.425 0.526,-0.436 0.53,-0.446C0.533,-0.454 0.537,-0.459 0.539,-0.467C0.545,-0.479 0.547,-0.49 0.552,-0.501C0.56,-0.52 0.566,-0.537 0.575,-0.555C0.579,-0.568 0.587,-0.581 0.591,-0.594C0.592,-0.597 0.594,-0.601 0.594,-0.604C0.595,-0.611 0.592,-0.617 0.59,-0.624C0.587,-0.626 0.586,-0.628 0.584,-0.628C0.577,-0.628 0.573,-0.631 0.569,-0.634L0.566,-0.638C0.565,-0.638 0.564,-0.639 0.563,-0.639C0.562,-0.639 0.56,-0.638 0.558,-0.637C0.558,-0.636 0.557,-0.635 0.555,-0.634L0.548,-0.634L0.547,-0.635C0.546,-0.64 0.542,-0.641 0.54,-0.643C0.538,-0.644 0.537,-0.644 0.536,-0.644C0.535,-0.644 0.535,-0.644 0.534,-0.642C0.534,-0.641 0.533,-0.639 0.532,-0.638C0.532,-0.638 0.528,-0.637 0.527,-0.637C0.522,-0.636 0.517,-0.633 0.516,-0.628L0.513,-0.625L0.506,-0.616C0.503,-0.612 0.503,-0.608 0.499,-0.603C0.495,-0.596 0.491,-0.589 0.485,-0.581C0.482,-0.577 0.479,-0.574 0.479,-0.573L0.474,-0.565C0.471,-0.561 0.467,-0.558 0.465,-0.555C0.464,-0.553 0.464,-0.548 0.462,-0.546C0.457,-0.542 0.457,-0.537 0.455,-0.533C0.454,-0.526 0.451,-0.522 0.446,-0.518C0.445,-0.515 0.443,-0.512 0.441,-0.509C0.441,-0.506 0.439,-0.504 0.439,-0.502C0.436,-0.497 0.431,-0.491 0.427,-0.483L0.401,-0.442C0.4,-0.44 0.399,-0.438 0.395,-0.437L0.387,-0.426C0.384,-0.419 0.38,-0.411 0.373,-0.404C0.371,-0.4 0.367,-0.395 0.365,-0.39C0.364,-0.386 0.361,-0.381 0.359,-0.377C0.351,-0.365 0.345,-0.353 0.335,-0.34C0.33,-0.332 0.325,-0.322 0.321,-0.317C0.319,-0.311 0.314,-0.305 0.312,-0.3C0.31,-0.295 0.305,-0.291 0.302,-0.285C0.301,-0.281 0.298,-0.278 0.296,-0.275C0.295,-0.271 0.295,-0.269 0.293,-0.267C0.288,-0.262 0.282,-0.255 0.28,-0.249C0.279,-0.245 0.276,-0.243 0.274,-0.238C0.272,-0.234 0.269,-0.232 0.267,-0.229C0.264,-0.226 0.261,-0.222 0.26,-0.217C0.26,-0.216 0.258,-0.214 0.257,-0.212C0.254,-0.209 0.252,-0.208 0.252,-0.207C0.254,-0.204 0.254,-0.203 0.254,-0.201C0.25,-0.196 0.249,-0.191 0.243,-0.19C0.24,-0.189 0.238,-0.187 0.238,-0.184L0.238,-0.183C0.237,-0.179 0.235,-0.177 0.232,-0.175C0.23,-0.175 0.229,-0.173 0.228,-0.17C0.228,-0.165 0.225,-0.161 0.222,-0.159C0.219,-0.158 0.218,-0.155 0.217,-0.154C0.201,-0.134 0.186,-0.111 0.17,-0.093C0.165,-0.083 0.158,-0.076 0.154,-0.069C0.142,-0.055 0.133,-0.042 0.121,-0.03L0.118,-0.027C0.111,-0.017 0.104,-0.01 0.101,-0C0.094,0.001 0.093,0.002 0.092,0.003C0.09,0.006 0.088,0.009 0.083,0.01L0.079,0.01C0.078,0.01 0.077,0.01 0.078,0.009C0.078,0.008 0.079,0.007 0.079,0.005C0.081,-0.005 0.082,-0.014 0.085,-0.025L0.088,-0.037C0.091,-0.041 0.093,-0.046 0.094,-0.049C0.094,-0.051 0.094,-0.054 0.095,-0.056C0.096,-0.063 0.098,-0.068 0.099,-0.073L0.106,-0.091C0.106,-0.094 0.11,-0.099 0.11,-0.104L0.114,-0.117C0.114,-0.117 0.115,-0.119 0.116,-0.119C0.118,-0.124 0.12,-0.128 0.121,-0.134C0.125,-0.144 0.128,-0.156 0.136,-0.165C0.136,-0.169 0.139,-0.172 0.14,-0.176C0.143,-0.184 0.141,-0.19 0.148,-0.196C0.148,-0.195 0.149,-0.195 0.149,-0.196C0.151,-0.209 0.159,-0.224 0.16,-0.236L0.164,-0.243C0.164,-0.244 0.166,-0.244 0.167,-0.245L0.176,-0.269C0.176,-0.273 0.179,-0.276 0.179,-0.28C0.183,-0.286 0.188,-0.295 0.19,-0.303L0.193,-0.311C0.199,-0.318 0.202,-0.327 0.204,-0.336C0.205,-0.34 0.206,-0.344 0.208,-0.348L0.214,-0.356C0.217,-0.363 0.218,-0.369 0.223,-0.373C0.224,-0.376 0.225,-0.378 0.225,-0.38C0.229,-0.391 0.235,-0.4 0.237,-0.411C0.238,-0.415 0.24,-0.419 0.244,-0.422C0.247,-0.425 0.25,-0.429 0.251,-0.434L0.262,-0.462L0.267,-0.469C0.269,-0.473 0.27,-0.479 0.27,-0.482L0.273,-0.488C0.278,-0.496 0.28,-0.501 0.283,-0.509C0.287,-0.515 0.29,-0.52 0.292,-0.525C0.293,-0.531 0.297,-0.535 0.301,-0.54L0.301,-0.541C0.301,-0.542 0.303,-0.544 0.304,-0.546C0.309,-0.555 0.314,-0.565 0.32,-0.574C0.323,-0.581 0.325,-0.587 0.33,-0.592L0.335,-0.6C0.337,-0.608 0.341,-0.615 0.345,-0.619C0.35,-0.631 0.357,-0.641 0.363,-0.652C0.366,-0.659 0.37,-0.663 0.374,-0.669C0.375,-0.674 0.378,-0.679 0.381,-0.684C0.385,-0.686 0.386,-0.69 0.387,-0.694C0.39,-0.701 0.395,-0.708 0.4,-0.716C0.402,-0.721 0.406,-0.727 0.407,-0.733C0.407,-0.735 0.406,-0.736 0.406,-0.738L0.408,-0.754C0.407,-0.758 0.403,-0.764 0.401,-0.769C0.4,-0.769 0.4,-0.77 0.4,-0.77C0.4,-0.771 0.398,-0.773 0.397,-0.773C0.392,-0.775 0.389,-0.779 0.385,-0.779L0.382,-0.779C0.381,-0.779 0.381,-0.779 0.38,-0.78C0.38,-0.782 0.379,-0.783 0.377,-0.783C0.376,-0.783 0.375,-0.783 0.373,-0.782C0.372,-0.781 0.37,-0.781 0.368,-0.781C0.365,-0.781 0.361,-0.782 0.356,-0.784C0.356,-0.784 0.355,-0.784 0.355,-0.785C0.354,-0.785 0.353,-0.784 0.352,-0.782C0.35,-0.778 0.346,-0.775 0.342,-0.771C0.336,-0.767 0.33,-0.761 0.327,-0.755L0.323,-0.75C0.315,-0.739 0.307,-0.729 0.304,-0.719L0.295,-0.705C0.291,-0.7 0.286,-0.693 0.283,-0.686C0.278,-0.681 0.275,-0.675 0.272,-0.669L0.248,-0.624C0.24,-0.616 0.235,-0.604 0.23,-0.593L0.229,-0.589C0.228,-0.585 0.227,-0.583 0.224,-0.581L0.22,-0.574C0.217,-0.566 0.21,-0.558 0.207,-0.549C0.207,-0.547 0.206,-0.543 0.203,-0.539C0.202,-0.538 0.202,-0.537 0.202,-0.536L0.202,-0.532C0.202,-0.53 0.203,-0.529 0.203,-0.528C0.203,-0.525 0.201,-0.523 0.198,-0.522C0.196,-0.521 0.196,-0.519 0.196,-0.516C0.196,-0.515 0.195,-0.515 0.193,-0.514C0.192,-0.514 0.191,-0.514 0.19,-0.513C0.189,-0.507 0.188,-0.502 0.185,-0.499L0.184,-0.493C0.184,-0.488 0.18,-0.483 0.18,-0.481C0.18,-0.48 0.179,-0.48 0.179,-0.48ZM0.059,0.104C0.061,0.104 0.06,0.105 0.06,0.105L0.058,0.105L0.059,0.104ZM0.178,-0.481L0.178,-0.48L0.179,-0.48L0.178,-0.481Z" style="fill:rgb(233,28,38);"/></g><g transform="matrix(37.5525,-1.31136,1.31136,37.5525,1257.62,64.9707)"><path d="M0.681,-0.762C0.681,-0.767 0.678,-0.771 0.673,-0.776C0.673,-0.776 0.672,-0.776 0.673,-0.777C0.671,-0.777 0.671,-0.777 0.671,-0.776C0.671,-0.775 0.671,-0.773 0.67,-0.773C0.67,-0.773 0.669,-0.774 0.669,-0.775C0.664,-0.78 0.662,-0.784 0.655,-0.786L0.655,-0.788C0.656,-0.79 0.656,-0.792 0.657,-0.791C0.658,-0.791 0.66,-0.791 0.66,-0.792L0.659,-0.793C0.658,-0.8 0.653,-0.804 0.645,-0.807C0.641,-0.808 0.637,-0.81 0.634,-0.812L0.631,-0.812C0.63,-0.812 0.628,-0.812 0.627,-0.811C0.626,-0.809 0.623,-0.808 0.621,-0.808C0.62,-0.808 0.619,-0.809 0.618,-0.809C0.616,-0.81 0.615,-0.811 0.615,-0.81C0.615,-0.81 0.614,-0.808 0.615,-0.807L0.615,-0.805C0.615,-0.803 0.614,-0.802 0.612,-0.802L0.609,-0.802C0.606,-0.801 0.603,-0.801 0.601,-0.801C0.598,-0.801 0.596,-0.801 0.594,-0.8C0.593,-0.801 0.592,-0.802 0.59,-0.802C0.588,-0.802 0.585,-0.801 0.583,-0.801C0.582,-0.801 0.581,-0.802 0.58,-0.802C0.58,-0.803 0.578,-0.803 0.577,-0.803C0.576,-0.803 0.575,-0.803 0.575,-0.801C0.575,-0.8 0.574,-0.799 0.575,-0.798C0.575,-0.798 0.573,-0.797 0.571,-0.797L0.57,-0.797C0.562,-0.795 0.553,-0.792 0.543,-0.791C0.539,-0.788 0.534,-0.788 0.529,-0.786C0.523,-0.783 0.518,-0.78 0.512,-0.78L0.509,-0.78C0.508,-0.78 0.506,-0.778 0.503,-0.778C0.496,-0.775 0.491,-0.767 0.483,-0.767C0.482,-0.767 0.48,-0.768 0.479,-0.768C0.468,-0.762 0.457,-0.759 0.445,-0.751C0.443,-0.749 0.442,-0.748 0.443,-0.748C0.444,-0.748 0.445,-0.748 0.447,-0.749C0.446,-0.747 0.446,-0.746 0.446,-0.745L0.446,-0.744L0.434,-0.736C0.428,-0.734 0.421,-0.731 0.416,-0.728C0.41,-0.725 0.406,-0.721 0.399,-0.718C0.392,-0.714 0.382,-0.713 0.377,-0.706L0.374,-0.707C0.374,-0.708 0.373,-0.709 0.373,-0.709L0.378,-0.713L0.38,-0.717L0.375,-0.717C0.363,-0.707 0.347,-0.699 0.334,-0.691C0.33,-0.689 0.326,-0.688 0.325,-0.683C0.325,-0.683 0.323,-0.68 0.322,-0.68L0.305,-0.668C0.301,-0.666 0.296,-0.665 0.294,-0.663L0.294,-0.657L0.289,-0.66L0.287,-0.66C0.285,-0.657 0.283,-0.653 0.279,-0.653C0.275,-0.651 0.272,-0.65 0.271,-0.647C0.27,-0.647 0.267,-0.646 0.265,-0.646C0.264,-0.646 0.264,-0.647 0.264,-0.647C0.263,-0.647 0.262,-0.646 0.262,-0.646C0.262,-0.645 0.263,-0.644 0.263,-0.643C0.262,-0.641 0.262,-0.641 0.262,-0.64L0.262,-0.638L0.257,-0.633L0.255,-0.635C0.254,-0.636 0.254,-0.637 0.254,-0.637C0.254,-0.637 0.253,-0.637 0.253,-0.636L0.231,-0.621C0.223,-0.616 0.214,-0.607 0.205,-0.602C0.199,-0.599 0.192,-0.596 0.19,-0.59L0.179,-0.582C0.172,-0.579 0.167,-0.575 0.164,-0.572L0.146,-0.557C0.139,-0.553 0.135,-0.546 0.128,-0.545L0.128,-0.543C0.123,-0.541 0.121,-0.539 0.118,-0.536C0.111,-0.528 0.103,-0.522 0.096,-0.514C0.088,-0.509 0.085,-0.5 0.076,-0.497C0.075,-0.496 0.074,-0.492 0.071,-0.49C0.068,-0.485 0.067,-0.481 0.062,-0.476C0.059,-0.472 0.054,-0.469 0.053,-0.463C0.053,-0.461 0.053,-0.459 0.054,-0.457L0.051,-0.453C0.047,-0.448 0.043,-0.439 0.042,-0.43C0.041,-0.427 0.041,-0.423 0.042,-0.42L0.042,-0.415C0.042,-0.413 0.042,-0.411 0.04,-0.409C0.039,-0.408 0.039,-0.408 0.039,-0.407C0.039,-0.405 0.041,-0.403 0.041,-0.399L0.041,-0.398C0.04,-0.397 0.04,-0.396 0.04,-0.395C0.04,-0.393 0.041,-0.392 0.04,-0.389C0.04,-0.38 0.043,-0.37 0.05,-0.362C0.055,-0.355 0.058,-0.345 0.062,-0.338C0.067,-0.332 0.073,-0.328 0.079,-0.323C0.08,-0.322 0.082,-0.321 0.083,-0.321C0.084,-0.314 0.089,-0.309 0.094,-0.306C0.103,-0.3 0.111,-0.297 0.118,-0.292C0.126,-0.288 0.135,-0.287 0.144,-0.282C0.154,-0.278 0.161,-0.274 0.172,-0.271C0.177,-0.27 0.181,-0.268 0.187,-0.266L0.204,-0.262L0.235,-0.251C0.238,-0.251 0.241,-0.249 0.244,-0.249L0.245,-0.249C0.247,-0.25 0.248,-0.251 0.25,-0.251C0.255,-0.251 0.258,-0.247 0.262,-0.247C0.266,-0.246 0.271,-0.245 0.275,-0.243C0.276,-0.243 0.277,-0.242 0.277,-0.241C0.278,-0.24 0.278,-0.239 0.278,-0.239L0.278,-0.238C0.278,-0.238 0.277,-0.237 0.278,-0.237L0.28,-0.237C0.282,-0.239 0.284,-0.24 0.285,-0.24C0.286,-0.24 0.288,-0.239 0.288,-0.237C0.292,-0.234 0.297,-0.231 0.304,-0.23L0.307,-0.23C0.308,-0.229 0.308,-0.227 0.308,-0.226L0.308,-0.225C0.308,-0.224 0.307,-0.224 0.306,-0.224C0.302,-0.223 0.295,-0.218 0.29,-0.216C0.285,-0.213 0.277,-0.208 0.267,-0.208C0.259,-0.207 0.252,-0.2 0.244,-0.197C0.242,-0.196 0.24,-0.195 0.239,-0.195C0.238,-0.195 0.237,-0.195 0.236,-0.196C0.235,-0.197 0.235,-0.197 0.234,-0.197C0.232,-0.197 0.231,-0.196 0.23,-0.194C0.229,-0.191 0.226,-0.19 0.224,-0.19C0.218,-0.19 0.214,-0.185 0.209,-0.181L0.191,-0.172L0.18,-0.168C0.176,-0.163 0.173,-0.159 0.168,-0.158C0.164,-0.158 0.16,-0.153 0.156,-0.151C0.153,-0.149 0.15,-0.148 0.147,-0.148L0.144,-0.148C0.143,-0.148 0.141,-0.146 0.14,-0.146C0.139,-0.146 0.139,-0.147 0.139,-0.148L0.139,-0.149C0.139,-0.15 0.141,-0.15 0.143,-0.151C0.148,-0.153 0.155,-0.155 0.159,-0.161C0.16,-0.161 0.161,-0.162 0.161,-0.163C0.16,-0.163 0.159,-0.164 0.159,-0.163L0.124,-0.143C0.122,-0.142 0.12,-0.14 0.118,-0.14C0.117,-0.14 0.116,-0.141 0.116,-0.143C0.116,-0.143 0.115,-0.144 0.114,-0.144C0.113,-0.144 0.111,-0.143 0.111,-0.143C0.105,-0.139 0.1,-0.135 0.094,-0.132C0.089,-0.129 0.085,-0.123 0.08,-0.121C0.073,-0.118 0.072,-0.111 0.065,-0.111C0.058,-0.102 0.049,-0.098 0.041,-0.091C0.03,-0.082 0.02,-0.072 0.01,-0.063C0.008,-0.06 0.005,-0.057 0.005,-0.052C0.003,-0.045 0,-0.036 -0.003,-0.03C-0.008,-0.026 -0.011,-0.02 -0.015,-0.015L-0.02,-0.006C-0.024,-0.003 -0.029,-0 -0.028,0.005L-0.028,0.01C-0.027,0.01 -0.029,0.013 -0.029,0.015C-0.03,0.017 -0.03,0.018 -0.03,0.019C-0.031,0.023 -0.029,0.025 -0.024,0.027C-0.021,0.029 -0.021,0.032 -0.021,0.035C-0.022,0.037 -0.023,0.041 -0.025,0.044C-0.025,0.046 -0.028,0.049 -0.028,0.052C-0.028,0.054 -0.027,0.055 -0.024,0.057L-0.023,0.058C-0.023,0.069 -0.015,0.075 -0.009,0.082C-0.008,0.085 -0.008,0.089 -0.004,0.089C-0.003,0.089 -0.002,0.088 -0.001,0.088C0,0.088 0,0.089 0.002,0.09C0.012,0.093 0.018,0.099 0.027,0.1C0.032,0.101 0.036,0.101 0.039,0.103C0.045,0.106 0.051,0.107 0.06,0.107L0.063,0.107C0.064,0.107 0.066,0.107 0.067,0.108C0.069,0.109 0.07,0.109 0.072,0.109C0.074,0.109 0.076,0.109 0.079,0.107C0.08,0.106 0.083,0.106 0.084,0.106C0.089,0.109 0.094,0.11 0.099,0.11C0.104,0.11 0.109,0.109 0.114,0.108L0.119,0.108C0.124,0.11 0.129,0.11 0.134,0.11L0.144,0.11L0.199,0.105L0.201,0.105C0.202,0.105 0.202,0.105 0.204,0.104C0.205,0.103 0.207,0.103 0.209,0.103C0.211,0.103 0.213,0.103 0.215,0.104L0.217,0.104C0.22,0.104 0.221,0.101 0.223,0.101L0.224,0.101C0.224,0.102 0.224,0.102 0.225,0.102L0.236,0.102C0.253,0.099 0.27,0.096 0.287,0.09C0.298,0.088 0.309,0.087 0.322,0.081C0.335,0.075 0.352,0.074 0.364,0.065C0.376,0.063 0.386,0.056 0.395,0.05C0.4,0.048 0.402,0.045 0.405,0.044C0.415,0.039 0.423,0.035 0.429,0.028C0.438,0.021 0.448,0.014 0.455,0.005C0.469,-0.009 0.483,-0.022 0.491,-0.04C0.501,-0.05 0.503,-0.064 0.51,-0.075C0.51,-0.076 0.512,-0.078 0.512,-0.079C0.512,-0.089 0.513,-0.1 0.514,-0.109C0.514,-0.115 0.512,-0.121 0.511,-0.126C0.51,-0.141 0.508,-0.153 0.501,-0.166C0.495,-0.179 0.485,-0.189 0.478,-0.2C0.477,-0.205 0.477,-0.21 0.471,-0.21C0.47,-0.21 0.469,-0.211 0.469,-0.211L0.469,-0.213C0.469,-0.217 0.466,-0.218 0.463,-0.219C0.461,-0.219 0.46,-0.22 0.459,-0.221C0.455,-0.225 0.452,-0.231 0.448,-0.236C0.44,-0.243 0.435,-0.251 0.425,-0.253C0.42,-0.255 0.417,-0.259 0.414,-0.263C0.411,-0.265 0.412,-0.267 0.41,-0.267C0.409,-0.267 0.408,-0.267 0.406,-0.266C0.405,-0.266 0.403,-0.267 0.403,-0.267C0.402,-0.271 0.398,-0.271 0.396,-0.272C0.393,-0.273 0.391,-0.276 0.388,-0.276C0.386,-0.278 0.384,-0.281 0.384,-0.284L0.387,-0.29C0.388,-0.29 0.389,-0.29 0.389,-0.291C0.388,-0.291 0.387,-0.292 0.387,-0.292C0.386,-0.292 0.386,-0.291 0.386,-0.291C0.385,-0.291 0.384,-0.29 0.384,-0.29C0.38,-0.288 0.377,-0.287 0.374,-0.287C0.37,-0.287 0.366,-0.288 0.362,-0.29L0.341,-0.299L0.302,-0.313C0.287,-0.319 0.27,-0.323 0.254,-0.327L0.181,-0.351C0.178,-0.353 0.174,-0.352 0.169,-0.354L0.146,-0.366C0.14,-0.368 0.134,-0.371 0.13,-0.375C0.123,-0.377 0.121,-0.38 0.117,-0.382C0.113,-0.384 0.11,-0.389 0.107,-0.393C0.106,-0.394 0.103,-0.395 0.103,-0.396L0.104,-0.4C0.104,-0.403 0.103,-0.406 0.103,-0.41L0.103,-0.413C0.103,-0.416 0.105,-0.419 0.106,-0.421C0.114,-0.434 0.124,-0.443 0.135,-0.453C0.137,-0.455 0.141,-0.458 0.144,-0.463C0.145,-0.464 0.146,-0.466 0.15,-0.468L0.202,-0.511C0.213,-0.517 0.222,-0.522 0.228,-0.531C0.235,-0.531 0.24,-0.538 0.244,-0.542L0.266,-0.556C0.276,-0.562 0.285,-0.57 0.296,-0.578C0.315,-0.588 0.333,-0.599 0.351,-0.612C0.36,-0.618 0.37,-0.625 0.381,-0.627C0.383,-0.628 0.385,-0.629 0.386,-0.629C0.393,-0.636 0.4,-0.636 0.407,-0.643L0.418,-0.65C0.424,-0.651 0.428,-0.655 0.435,-0.657C0.438,-0.66 0.443,-0.664 0.447,-0.666C0.457,-0.669 0.465,-0.676 0.475,-0.676C0.477,-0.677 0.479,-0.68 0.48,-0.682C0.486,-0.687 0.496,-0.687 0.5,-0.694C0.501,-0.694 0.503,-0.693 0.504,-0.693C0.508,-0.693 0.512,-0.696 0.514,-0.698C0.519,-0.701 0.525,-0.704 0.532,-0.704L0.535,-0.704C0.536,-0.704 0.538,-0.704 0.54,-0.705C0.545,-0.71 0.552,-0.711 0.557,-0.712C0.569,-0.717 0.58,-0.721 0.591,-0.723C0.603,-0.726 0.618,-0.728 0.63,-0.731L0.637,-0.731C0.64,-0.73 0.644,-0.73 0.647,-0.73C0.654,-0.73 0.661,-0.731 0.669,-0.732L0.67,-0.733C0.67,-0.734 0.67,-0.734 0.669,-0.735C0.668,-0.736 0.667,-0.736 0.667,-0.736C0.666,-0.736 0.666,-0.736 0.666,-0.737C0.665,-0.737 0.665,-0.738 0.665,-0.739L0.666,-0.74C0.668,-0.739 0.67,-0.738 0.671,-0.738C0.674,-0.738 0.674,-0.741 0.675,-0.744C0.675,-0.748 0.676,-0.751 0.679,-0.757L0.681,-0.762ZM0.083,0.039C0.077,0.039 0.069,0.039 0.065,0.038L0.038,0.032C0.035,0.031 0.033,0.03 0.034,0.027C0.034,0.026 0.034,0.025 0.035,0.024C0.035,0.021 0.036,0.016 0.037,0.013C0.042,0.008 0.044,0.005 0.048,-0C0.046,-0.001 0.045,-0.001 0.045,-0.002C0.045,-0.003 0.046,-0.004 0.046,-0.004C0.057,-0.012 0.062,-0.023 0.074,-0.031C0.077,-0.034 0.08,-0.035 0.08,-0.038L0.081,-0.039C0.082,-0.044 0.085,-0.046 0.089,-0.048C0.096,-0.054 0.102,-0.059 0.109,-0.063C0.121,-0.07 0.13,-0.079 0.14,-0.086C0.16,-0.101 0.179,-0.117 0.201,-0.129C0.207,-0.132 0.215,-0.138 0.222,-0.142C0.223,-0.142 0.224,-0.143 0.224,-0.143C0.228,-0.151 0.236,-0.152 0.242,-0.157C0.249,-0.161 0.256,-0.167 0.262,-0.17C0.274,-0.175 0.283,-0.182 0.293,-0.189C0.299,-0.192 0.303,-0.195 0.309,-0.197C0.309,-0.198 0.31,-0.199 0.311,-0.2L0.311,-0.201C0.311,-0.206 0.313,-0.208 0.317,-0.21L0.332,-0.218C0.333,-0.218 0.336,-0.219 0.337,-0.219C0.341,-0.219 0.344,-0.217 0.349,-0.215C0.36,-0.211 0.372,-0.203 0.382,-0.196C0.393,-0.192 0.4,-0.185 0.407,-0.179C0.417,-0.172 0.421,-0.164 0.426,-0.156C0.433,-0.148 0.436,-0.136 0.437,-0.122C0.437,-0.119 0.438,-0.116 0.437,-0.114C0.436,-0.104 0.431,-0.095 0.423,-0.085C0.421,-0.083 0.421,-0.081 0.419,-0.078L0.415,-0.071C0.406,-0.06 0.396,-0.05 0.386,-0.041C0.384,-0.038 0.38,-0.037 0.378,-0.035C0.377,-0.033 0.376,-0.029 0.373,-0.029L0.358,-0.022C0.355,-0.021 0.352,-0.019 0.35,-0.016C0.348,-0.015 0.347,-0.014 0.345,-0.014L0.342,-0.014C0.338,-0.014 0.334,-0.011 0.333,-0.007C0.332,-0.004 0.33,-0.002 0.327,-0.002C0.31,0.001 0.297,0.006 0.283,0.011C0.271,0.014 0.26,0.018 0.247,0.022C0.245,0.023 0.24,0.024 0.237,0.026C0.234,0.028 0.228,0.027 0.222,0.028C0.21,0.03 0.196,0.032 0.185,0.035C0.174,0.035 0.165,0.037 0.156,0.038L0.14,0.038C0.129,0.038 0.117,0.038 0.107,0.041C0.105,0.04 0.103,0.04 0.101,0.04C0.097,0.04 0.093,0.041 0.09,0.041C0.088,0.041 0.086,0.04 0.083,0.039ZM0.094,-0.108C0.093,-0.107 0.091,-0.107 0.089,-0.107L0.12,-0.13L0.126,-0.133L0.128,-0.133C0.128,-0.132 0.129,-0.132 0.129,-0.131C0.126,-0.129 0.125,-0.124 0.118,-0.123C0.115,-0.123 0.111,-0.119 0.108,-0.117L0.094,-0.108ZM0.173,-0.182C0.172,-0.182 0.171,-0.181 0.171,-0.181C0.168,-0.18 0.165,-0.178 0.164,-0.176C0.157,-0.173 0.151,-0.169 0.146,-0.166C0.144,-0.164 0.145,-0.163 0.144,-0.163L0.148,-0.163C0.154,-0.168 0.162,-0.171 0.169,-0.176C0.17,-0.176 0.172,-0.179 0.173,-0.181L0.173,-0.182ZM0.084,-0.106C0.085,-0.107 0.086,-0.107 0.087,-0.107C0.084,-0.101 0.08,-0.097 0.075,-0.093C0.073,-0.093 0.072,-0.094 0.071,-0.094C0.07,-0.094 0.069,-0.093 0.069,-0.093C0.069,-0.094 0.071,-0.097 0.072,-0.097C0.077,-0.099 0.081,-0.102 0.084,-0.106Z" style="fill:rgb(233,28,38);"/></g></g></svg>